{"title":"Turbo.2013.R6.READNFO.XViD-FANTA","uid":8950006,"size":1565001620,"categoryP":"video","categoryS":"movies","magnet":"?xt=urn:btih:7787ec0ece5d8c942cf8eff5f17168f302185e56&amp;dn=Turbo.2013.R6.READNFO.XViD-FANTA&amp;tr=udp%3A%2F%2Ftracker.openbittorrent.com%3A80&amp;tr=udp%3A%2F%2Fopen.demonii.com%3A1337&amp;tr=udp%3A%2F%2Ftracker.coppersurfer.tk%3A6969&amp;tr=udp%3A%2F%2Fexodus.desync.com%3A6969","seeders":1,"leechers":3,"uploader":"xxxlavalxxx","files":-1,"time":1379859220,"description":" &lt;a href=&quot;\nhttp://www.imdb.com/title/tt1860353/&quot; rel=&quot;nofollow&quot; target=&quot;_NEW&quot;&gt;\nhttp://www.imdb.com/title/tt1860353/&lt;/a&gt;\n\n\n\nFrom the makers of MADAGASCAR and KUNG FU PANDA, TURBO is a high-velocity 3D comedy about a snail who dares to dream big - and fast. After a freak accident infuses him with the power of super-speed, Turbo kicks into overdrive and embarks on an extraordinary journey to achieve the seemingly impossible: competing in the world's fastest race, the Indianapolis 500. With the help of his tricked-out streetwise snail crew, this ultimate underdog puts his heart and shell on the line to prove that no dream is too big, and no dreamer too small.  \n\n\n\nDirector:\n David Soren \n\nWriters:\n Darren Lemke (screenplay), Robert D. Siegel (screenplay)\n\nStars:\n Ryan Reynolds, Paul Giamatti, Maya Rudolph\n\nGenres:\n  Animation |  Adventure |  Comedy |  Family |  Sport \n\nCountry:\n USA \n\nLanguage:\n English \n\n\n\nFormat                                   : AVI\nFormat/Info                              : Audio Video Interleave\nFormat profile                           : OpenDML\nFormat settings                          : rec\nFile size                                : 1.43 GiB\nDuration                                 : 1h 32mn\nOverall bit rate                         : 2 221 Kbps\nWriting application                      : AVI-Mux GUI 1.17.8.3, Feb 16 201019:42:50\n\nVideo\nID                                       : 0\nFormat                                   : MPEG-4 Visual\nFormat profile                           : Advanced Simple@L5\nFormat settings, BVOP                    : 1\nFormat settings, QPel                    : No\nFormat settings, GMC                     : No warppoints\nFormat settings, Matrix                  : Default (H.263)\nMuxing mode                              : Packed bitstream\nCodec ID                                 : XVID\nCodec ID/Hint                            : XviD\nDuration                                 : 1h 32mn\nBit rate                                 : 2 023 Kbps\nWidth                                    : 720 pixels\nHeight                                   : 408 pixels\nDisplay aspect ratio                     : 16:9\nFrame rate                               : 23.976 fps\nColor space                              : YUV\nChroma subsampling                       : 4:2:0\nBit depth                                : 8 bits\nScan type                                : Progressive\nCompression mode                         : Lossy\nBits/(Pixel*Frame)                       : 0.287\nStream size                              : 1.31 GiB (91%)\nWriting library                          : XviD 64\n\nAudio\nID                                       : 1\nFormat                                   : AC-3\nFormat/Info                              : Audio Coding 3\nMode extension                           : CM (complete main)\nFormat settings, Endianness              : Big\nCodec ID                                 : 2000\nDuration                                 : 1h 32mn\nBit rate mode                            : Constant\nBit rate                                 : 192 Kbps\nChannel(s)                               : 2 channels\nChannel positions                        : Front: L R\nSampling rate                            : 48.0 KHz\nBit depth                                : 16 bits\nCompression mode                         : Lossy\nStream size                              : 127 MiB (9%)\nAlignment                                : Aligned on interleaves\nInterleave, duration                     : 64 ms (1.53 video frames)\nInterleave, preload duration             : 192 ms\nTitle                                    : Turbo 2013ENG AUDIO MURDER\n\n\n\n\n &lt;a href=&quot;\nhttp://bayimg.com/MaPJlAAEN&quot; rel=&quot;nofollow&quot; target=&quot;_NEW&quot;&gt;\nhttp://bayimg.com/MaPJlAAEN&lt;/a&gt; &lt;a href=&quot;\nhttp://bayimg.com/MApJnaAEN&quot; rel=&quot;nofollow&quot; target=&quot;_NEW&quot;&gt;\nhttp://bayimg.com/MApJnaAEN&lt;/a&gt; &lt;a href=&quot;\nhttp://bayimg.com/mapjoAaEN&quot; rel=&quot;nofollow&quot; target=&quot;_NEW&quot;&gt;\nhttp://bayimg.com/mapjoAaEN&lt;/a&gt;","torrent":{"xt":"urn:btih:7787ec0ece5d8c942cf8eff5f17168f302185e56","amp;dn":"Turbo.2013.R6.READNFO.XViD-FANTA","amp;tr":["udp%3A%2F%2Ftracker.openbittorrent.com%3A80","udp%3A%2F%2Fopen.demonii.com%3A1337","udp%3A%2F%2Ftracker.coppersurfer.tk%3A6969","udp%3A%2F%2Fexodus.desync.com%3A6969"],"infoHash":"7787ec0ece5d8c942cf8eff5f17168f302185e56","infoHashBuffer":{"type":"Buffer","data":[119,135,236,14,206,93,140,148,44,248,239,245,241,113,104,243,2,24,94,86]},"announce":[],"urlList":[]}}